<svg width="1024" height="1024" viewBox="0 0 1024 1024" fill="none" xmlns="http://www.w3.org/2000/svg">
  <rect width="1024" height="1024" rx="236" fill="url(#bg)"/>
  <rect x="70" y="70" width="884" height="884" rx="196" stroke="rgba(255,255,255,0.12)" stroke-width="2"/>
  <g opacity="0.22">
    <path d="M192 232H832" stroke="#D9E6F6" stroke-width="12" stroke-linecap="round"/>
    <path d="M192 392H832" stroke="#D9E6F6" stroke-width="12" stroke-linecap="round"/>
    <path d="M192 552H832" stroke="#D9E6F6" stroke-width="12" stroke-linecap="round"/>
    <path d="M192 712H832" stroke="#D9E6F6" stroke-width="12" stroke-linecap="round"/>
  </g>
  <g filter="url(#glowA)">
    <path d="M176 666C273 563 389 511 520 511C625 511 707 538 810 592" stroke="#14B8A6" stroke-width="52" stroke-linecap="round"/>
  </g>
  <g filter="url(#glowB)">
    <path d="M244 748C357 642 473 591 612 591C680 591 748 605 810 633" stroke="#F97316" stroke-width="34" stroke-linecap="round"/>
  </g>
  <circle cx="752" cy="310" r="78" fill="#60A5FA" fill-opacity="0.92"/>
  <circle cx="288" cy="286" r="56" fill="#14B8A6" fill-opacity="0.82"/>
  <path d="M371 238H659" stroke="#F8FBFF" stroke-width="84" stroke-linecap="round"/>
  <path d="M515 238V711" stroke="#F8FBFF" stroke-width="96" stroke-linecap="round"/>
  <path d="M371 711H627" stroke="#F8FBFF" stroke-width="84" stroke-linecap="round" opacity="0.9"/>
  <defs>
    <linearGradient id="bg" x1="132" y1="84" x2="911" y2="918" gradientUnits="userSpaceOnUse">
      <stop stop-color="#08111F"/>
      <stop offset="0.58" stop-color="#0A182B"/>
      <stop offset="1" stop-color="#101F34"/>
    </linearGradient>
    <filter id="glowA" x="108" y="443" width="770" height="291" filterUnits="userSpaceOnUse" color-interpolation-filters="sRGB">
      <feFlood flood-opacity="0" result="BackgroundImageFix"/>
      <feBlend mode="normal" in="SourceGraphic" in2="BackgroundImageFix" result="shape"/>
      <feGaussianBlur stdDeviation="18" result="effect1_foregroundBlur_0_1"/>
    </filter>
    <filter id="glowB" x="194" y="541" width="666" height="257" filterUnits="userSpaceOnUse" color-interpolation-filters="sRGB">
      <feFlood flood-opacity="0" result="BackgroundImageFix"/>
      <feBlend mode="normal" in="SourceGraphic" in2="BackgroundImageFix" result="shape"/>
      <feGaussianBlur stdDeviation="14" result="effect1_foregroundBlur_0_1"/>
    </filter>
  </defs>
</svg>
